<svg width="100" height="101" viewBox="0 0 100 101" fill="none" xmlns="http://www.w3.org/2000/svg">
<circle cx="50" cy="50.5" r="50" fill="#FF0000"/>
<circle cx="50" cy="50.5" r="45" stroke="black" stroke-opacity="0.1" stroke-width="10"/>
<g clip-path="url(#clip0_55_8786)">
<g clip-path="url(#clip1_55_8786)">
<path opacity="0.938" fill-rule="evenodd" clip-rule="evenodd" d="M61.5709 59.6406C62.9246 59.7395 63.2989 60.3904 62.6939 61.5937C60.9355 64.1338 58.8359 66.3636 56.3951 68.2832C55.8807 68.6028 55.3599 68.6028 54.8326 68.2832C54.5091 67.8417 54.4603 67.3697 54.6861 66.8672C57.1801 64.927 59.2961 62.6483 61.0338 60.0312C61.2107 59.887 61.3897 59.7568 61.5709 59.6406Z" fill="white"/>
<path opacity="0.899" fill-rule="evenodd" clip-rule="evenodd" d="M52.5867 68.1397C53.7523 67.9546 54.2569 68.4429 54.1003 69.6046C53.7758 70.2304 53.2713 70.442 52.5867 70.2394C51.6794 69.5441 51.6794 68.8442 52.5867 68.1397Z" fill="white"/>
<g clip-path="url(#clip2_55_8786)">
<path opacity="0.992" fill-rule="evenodd" clip-rule="evenodd" d="M49.3661 25.9531C49.7567 25.9531 50.1473 25.9531 50.538 25.9531C51.449 26.553 52.2953 27.2529 53.077 28.0527C56.6402 30.8095 60.6767 32.4371 65.1864 32.9355C66.6491 33.0637 68.1139 33.1614 69.5809 33.2285C70.3245 33.4187 70.7639 33.8907 70.8993 34.6445C71.1107 39.5623 71.0781 44.4776 70.8016 49.3906C69.9098 62.8071 63.1227 71.6613 50.4403 75.9531C50.1148 75.9531 49.7892 75.9531 49.4637 75.9531C36.7825 71.6651 29.9954 62.8109 29.1024 49.3906C28.8257 44.5104 28.7931 39.6275 29.0048 34.7422C29.0953 33.9354 29.5348 33.4308 30.3231 33.2285C35.0098 33.3262 39.4369 32.3171 43.6044 30.2012C45.5376 29.1036 47.2954 27.769 48.8778 26.1973C49.0551 26.1234 49.2178 26.042 49.3661 25.9531ZM57.0809 43.2383C57.9078 44.0816 58.7216 44.9442 59.5223 45.8262C55.8145 49.2409 52.1361 52.6914 48.4872 56.1777C47.8115 56.6771 47.0954 56.7422 46.3387 56.373C44.3628 54.2431 42.4096 52.0946 40.4794 49.9277C41.3711 49.199 42.2337 48.4341 43.0673 47.6328C44.5176 49.184 45.9336 50.7627 47.3153 52.3691C47.413 52.4343 47.5106 52.4343 47.6083 52.3691C50.7852 49.3385 53.9429 46.2949 57.0809 43.2383Z" fill="white"/>
</g>
</g>
</g>
<defs>
<clipPath id="clip0_55_8786">
<rect width="50" height="50" fill="white" transform="translate(25 26)"/>
</clipPath>
<clipPath id="clip1_55_8786">
<rect width="50" height="50" fill="white" transform="translate(25 26)"/>
</clipPath>
<clipPath id="clip2_55_8786">
<rect width="50" height="50" fill="white" transform="translate(25 26)"/>
</clipPath>
</defs>
</svg>
