<svg width="128" height="41" viewBox="0 0 128 41" fill="none" xmlns="http://www.w3.org/2000/svg">
<rect y="0.94873" width="40" height="40" rx="20" fill="#F1F1F1"/>
<path d="M15.7103 17.5664L11.1523 23.437L8.93646 20.5862L11.2808 17.5664H15.7103Z" fill="#FF0000"/>
<path d="M23.3894 15.7544L14.2607 27.044L12.0997 24.3696L19.0654 15.7544H23.3894Z" fill="#FF0000"/>
<path d="M31.0636 13.9487L19.5378 27.9487H15.2571L26.783 13.9487H31.0636Z" fill="#FF0000"/>
<rect x="44" y="0.94873" width="40" height="40" rx="20" fill="#F1F1F1"/>
<rect x="44" y="0.94873" width="40" height="40" rx="20" fill="#FF0000"/>
<g style="mix-blend-mode:hue">
<circle cx="64" cy="20.9487" r="20" fill="#FF0000"/>
</g>
<path d="M59.7103 17.5664L55.1523 23.437L52.9365 20.5862L55.2808 17.5664H59.7103Z" fill="white"/>
<path d="M67.3894 15.7544L58.2607 27.044L56.0997 24.3696L63.0654 15.7544H67.3894Z" fill="white"/>
<path d="M75.0636 13.9487L63.5378 27.9487H59.2571L70.783 13.9487H75.0636Z" fill="white"/>
<rect x="88" y="0.94873" width="40" height="40" rx="20" fill="#F1F1F1"/>
<rect x="88" y="0.94873" width="40" height="40" rx="20" fill="#080808"/>
<g style="mix-blend-mode:hue">
<circle cx="108" cy="20.9487" r="20" fill="#FF0000"/>
</g>
<path d="M103.71 17.5664L99.1523 23.437L96.9365 20.5862L99.2808 17.5664H103.71Z" fill="white"/>
<path d="M111.389 15.7544L102.261 27.044L100.1 24.3696L107.065 15.7544H111.389Z" fill="white"/>
<path d="M119.064 13.9487L107.538 27.9487H103.257L114.783 13.9487H119.064Z" fill="white"/>
</svg>
