<svg width="179" height="215" viewBox="0 0 179 215" fill="none" xmlns="http://www.w3.org/2000/svg">
<path d="M167.214 54.1436C167.797 55.3666 168.36 56.6049 168.904 57.8574L168.447 58.0566C168.985 59.2948 169.503 60.5474 170.001 61.8135L170.465 61.6299C170.961 62.8914 171.437 64.1663 171.894 65.4541L171.424 65.6211C171.874 66.8917 172.304 68.1754 172.714 69.4707L173.19 69.3203V69.3193C173.599 70.6106 173.987 71.914 174.354 73.2285H174.355L173.874 73.3633C174.238 74.6628 174.581 75.9736 174.904 77.2949L175.388 77.1768C175.71 78.494 176.011 79.8215 176.292 81.1592L175.805 81.2617C176.082 82.5822 176.338 83.9125 176.573 85.252L177.063 85.165C177.298 86.4982 177.512 87.8405 177.705 89.1914L177.212 89.2627C177.403 90.5982 177.573 91.942 177.723 93.2939L178.218 93.2393C178.366 94.5867 178.494 95.942 178.601 97.3047L178.104 97.3438C178.21 98.6891 178.294 100.042 178.357 101.401L178.855 101.378C178.919 102.73 178.961 104.088 178.982 105.452L178.484 105.46C178.495 106.138 178.5 106.819 178.5 107.5C178.5 108.181 178.495 108.862 178.484 109.54L178.982 109.547C178.961 110.911 178.919 112.27 178.855 113.621L178.357 113.599C178.294 114.958 178.21 116.311 178.104 117.656L178.601 117.694C178.494 119.057 178.366 120.412 178.218 121.76L177.723 121.706C177.573 123.058 177.403 124.402 177.212 125.737L177.705 125.808C177.512 127.159 177.298 128.501 177.063 129.834L176.573 129.748C176.338 131.088 176.082 132.418 175.805 133.738L176.292 133.84C176.011 135.178 175.71 136.505 175.388 137.822L174.904 137.705C174.581 139.026 174.238 140.337 173.874 141.637L174.354 141.771C173.987 143.085 173.599 144.388 173.19 145.68L172.714 145.529C172.304 146.825 171.874 148.108 171.424 149.379L171.894 149.545C171.437 150.833 170.961 152.108 170.465 153.369L170.001 153.187C169.503 154.453 168.985 155.705 168.447 156.943L168.904 157.142C168.36 158.394 167.797 159.632 167.214 160.855L166.764 160.642C166.179 161.868 165.574 163.08 164.95 164.275L165.392 164.506C164.76 165.716 164.109 166.909 163.439 168.086L163.007 167.84C162.335 169.021 161.643 170.185 160.934 171.331L161.357 171.594C160.638 172.755 159.899 173.899 159.143 175.023L158.729 174.746C157.971 175.874 157.192 176.983 156.396 178.072L156.799 178.365C155.993 179.468 155.17 180.551 154.328 181.613L153.938 181.304C153.094 182.368 152.232 183.412 151.353 184.434L151.73 184.759C150.84 185.793 149.933 186.806 149.008 187.796L148.644 187.455C147.717 188.447 146.771 189.416 145.811 190.361L146.16 190.716C145.187 191.673 144.198 192.606 143.191 193.514L142.857 193.144C141.849 194.053 140.824 194.938 139.783 195.796L140.1 196.18C139.047 197.048 137.979 197.891 136.895 198.706L136.595 198.307C135.51 199.121 134.411 199.909 133.296 200.668L133.576 201.079C132.449 201.847 131.307 202.586 130.15 203.296L129.89 202.871C128.735 203.579 127.565 204.259 126.382 204.907L126.621 205.344C125.427 205.999 124.218 206.622 122.996 207.215L122.779 206.768C121.562 207.358 120.331 207.918 119.088 208.444L119.282 208.903C118.029 209.434 116.763 209.932 115.485 210.396L115.315 209.929C114.046 210.391 112.764 210.819 111.471 211.214L111.616 211.69C110.316 212.087 109.005 212.451 107.684 212.778L107.563 212.295C106.254 212.619 104.935 212.909 103.605 213.163L103.698 213.652C102.366 213.907 101.024 214.128 99.6729 214.312L99.6064 213.817C98.2727 213.999 96.9301 214.144 95.5791 214.254L95.6182 214.751C94.2684 214.86 92.9105 214.934 91.5449 214.971L91.5332 214.473C90.8574 214.491 90.1794 214.5 89.5 214.5C88.8206 214.5 88.1426 214.491 87.4668 214.473L87.4541 214.971C86.0886 214.934 84.7307 214.86 83.3809 214.751L83.4209 214.254C82.0699 214.144 80.7273 213.999 79.3936 213.817L79.3262 214.312C77.975 214.128 76.6331 213.907 75.3008 213.652L75.3945 213.163C74.0652 212.909 72.7456 212.619 71.4365 212.295L71.3154 212.778C69.9936 212.451 68.6827 212.087 67.3828 211.69L67.5293 211.214C66.2364 210.819 64.9543 210.391 63.6846 209.929L63.5137 210.396C62.2358 209.932 60.9698 209.434 59.7168 208.903L59.9121 208.444C58.6689 207.918 57.438 207.358 56.2207 206.768L56.0029 207.215C54.7811 206.622 53.5723 205.999 52.3779 205.344L52.6182 204.907C51.435 204.259 50.2652 203.579 49.1104 202.871L48.8486 203.296C47.6918 202.586 46.5499 201.847 45.4229 201.079L45.7041 200.668C44.5893 199.909 43.4896 199.121 42.4053 198.307L42.1045 198.706C41.02 197.891 39.9521 197.048 38.8994 196.18L39.2168 195.796C38.1761 194.938 37.1509 194.053 36.1426 193.144L35.8076 193.514C34.8014 192.606 33.8116 191.673 32.8389 190.717L33.1895 190.361C32.2285 189.416 31.2834 188.447 30.3564 187.455L29.9912 187.796C29.0661 186.806 28.1586 185.793 27.2686 184.759L27.6475 184.434C26.7682 183.412 25.9063 182.368 25.0625 181.304L24.6709 181.613C23.829 180.551 23.0057 179.468 22.2002 178.365L22.6035 178.072C21.8078 176.983 21.0295 175.874 20.2705 174.746L19.8564 175.023C19.0996 173.899 18.3609 172.755 17.6416 171.594L18.0664 171.331C17.3566 170.185 16.6652 169.021 15.9932 167.84L15.5596 168.086C14.8899 166.909 14.2387 165.716 13.6074 164.506L14.0498 164.275C13.426 163.08 12.8214 161.868 12.2363 160.642L11.7852 160.855C11.2019 159.632 10.6386 158.394 10.0947 157.142L10.5527 156.943C10.0151 155.705 9.49706 154.453 8.99902 153.187L8.53418 153.369C8.03794 152.108 7.56156 150.833 7.10547 149.545L7.57617 149.379C7.12617 148.108 6.69596 146.825 6.28613 145.529L5.80859 145.68C5.40005 144.388 5.01238 143.085 4.64453 141.771L5.12598 141.637C4.76233 140.337 4.41852 139.026 4.0957 137.705L3.61133 137.822C3.28951 136.505 2.98754 135.178 2.70703 133.84L3.19531 133.738C2.91841 132.418 2.6624 131.088 2.42676 129.748L1.93555 129.834C1.70101 128.501 1.48692 127.159 1.29395 125.808L1.78809 125.737C1.59731 124.402 1.42653 123.058 1.27734 121.706L0.78125 121.76C0.632572 120.412 0.50516 119.057 0.398438 117.694L0.895508 117.656C0.790136 116.311 0.70612 114.958 0.642578 113.599L0.143555 113.621C0.0803891 112.27 0.0378152 110.911 0.0166016 109.547L0.515625 109.54C0.505072 108.862 0.5 108.181 0.5 107.5C0.5 106.819 0.505073 106.138 0.515625 105.46L0.0166016 105.452C0.0378254 104.088 0.080379 102.729 0.143555 101.378L0.642578 101.401C0.706119 100.042 0.790138 98.6891 0.895508 97.3438L0.398438 97.3047C0.50517 95.942 0.632562 94.5867 0.78125 93.2393L1.27734 93.2939C1.42653 91.942 1.59731 90.5982 1.78809 89.2627L1.29395 89.1914C1.48693 87.8405 1.701 86.4982 1.93555 85.165L2.42676 85.252C2.6624 83.9125 2.91841 82.5821 3.19531 81.2617L2.70703 81.1592C2.98755 79.8215 3.2895 78.494 3.61133 77.1768L4.0957 77.2949C4.41852 75.9737 4.76234 74.6627 5.12598 73.3633L4.64453 73.2285C5.01238 71.914 5.40004 70.6106 5.80859 69.3193L5.80957 69.3203L6.28613 69.4707C6.69596 68.1754 7.12618 66.8917 7.57617 65.6211L7.10547 65.4541C7.56157 64.1663 8.03793 62.8914 8.53418 61.6299L8.99902 61.8135C9.49706 60.5474 10.0151 59.2948 10.5527 58.0566L10.0947 57.8574C10.4942 56.9376 10.9035 56.0251 11.3242 55.1211L11.7852 54.1436L12.2363 54.3584C12.8214 53.1317 13.426 51.9202 14.0498 50.7246L13.6074 50.4932C14.2387 49.2833 14.8899 48.0899 15.5596 46.9131L15.9932 47.1602C16.6652 45.9791 17.3566 44.8152 18.0664 43.6689L17.6416 43.4053C18.3608 42.2439 19.0987 41.1002 19.8555 39.9756L20.2705 40.2539C21.0294 39.126 21.8078 38.017 22.6035 36.9277L22.2002 36.6338C22.7832 35.8356 23.3754 35.0475 23.9775 34.2705L24.6709 33.3857L25.0625 33.6963C25.9063 32.6318 26.7682 31.5883 27.6475 30.5664L27.2686 30.2402C28.1586 29.2057 29.0661 28.1929 29.9912 27.2031L30.3564 27.5449C31.2834 26.5532 32.2285 25.5837 33.1895 24.6387L32.8389 24.2832C33.8118 23.3264 34.8012 22.3931 35.8076 21.4854L36.1426 21.8564C37.1509 20.947 38.1761 20.0624 39.2168 19.2041L38.8994 18.8193C39.9521 17.9511 41.02 17.1077 42.1045 16.293L42.4053 16.6934C43.4896 15.8787 44.5893 15.0912 45.7041 14.332L45.4229 13.9199C46.5499 13.1524 47.6918 12.4128 48.8486 11.7031L49.1104 12.1289C50.2652 11.4205 51.435 10.7414 52.6182 10.0928L52.377 9.65527C53.5716 9.00031 54.7808 8.37703 56.0029 7.78418L56.2207 8.23242C57.438 7.64189 58.6689 7.08245 59.9121 6.55566L59.7168 6.0957C60.9697 5.5648 62.2359 5.06749 63.5137 4.60254L63.6846 5.07129C64.9543 4.60929 66.2364 4.18088 67.5293 3.78613L67.3828 3.30859C68.6826 2.91173 69.9936 2.54838 71.3154 2.2207L71.4365 2.70508C72.7456 2.38059 74.0652 2.09143 75.3945 1.83691L75.3008 1.34668C76.6331 1.09159 77.975 0.871137 79.3262 0.6875L79.3936 1.18262C80.7273 1.00136 82.0699 0.855663 83.4209 0.746094L83.3809 0.248047C84.7306 0.138579 86.0886 0.0651092 87.4541 0.0283203L87.4668 0.527344C88.1426 0.509134 88.8206 0.5 89.5 0.5C90.1794 0.5 90.8574 0.509134 91.5332 0.527344L91.5449 0.0283203C92.9105 0.0650916 94.2684 0.138597 95.6182 0.248047L95.5791 0.746094C96.9301 0.855663 98.2727 1.00136 99.6064 1.18262L99.6729 0.6875C101.024 0.87112 102.366 1.09161 103.698 1.34668L103.605 1.83691C104.935 2.09143 106.254 2.38059 107.563 2.70508L107.684 2.2207C109.005 2.54837 110.316 2.91175 111.616 3.30859L111.471 3.78613C112.764 4.18088 114.046 4.60928 115.315 5.07129L115.485 4.60254C116.763 5.06748 118.029 5.56481 119.282 6.0957H119.283L119.088 6.55566C120.331 7.08245 121.562 7.64189 122.779 8.23242L122.996 7.78418C124.218 8.3769 125.427 9.00047 126.621 9.65527L126.382 10.0928C127.565 10.7414 128.735 11.4205 129.89 12.1289L130.15 11.7031C131.307 12.4128 132.449 13.1524 133.576 13.9199L133.296 14.332C134.411 15.0912 135.51 15.8788 136.595 16.6934L136.895 16.293C137.979 17.1077 139.047 17.9511 140.1 18.8193L139.783 19.2041C140.824 20.0624 141.849 20.947 142.857 21.8564L143.191 21.4854C144.198 22.393 145.187 23.3256 146.16 24.2822L145.811 24.6387C146.771 25.5837 147.717 26.5532 148.644 27.5449L149.008 27.2031C149.933 28.1929 150.84 29.2057 151.73 30.2402L151.353 30.5664C152.232 31.5883 153.094 32.6318 153.938 33.6963L154.328 33.3857C155.17 34.4478 155.993 35.5311 156.799 36.6338L156.396 36.9277C157.192 38.017 157.971 39.126 158.729 40.2539L159.143 39.9756C159.899 41.1004 160.638 42.2437 161.357 43.4053L160.934 43.6689C161.643 44.8152 162.335 45.9791 163.007 47.1602L163.439 46.9131C164.109 48.09 164.76 49.2833 165.392 50.4932L164.95 50.7246C165.574 51.9202 166.179 53.1317 166.764 54.3584L167.214 54.1436Z" stroke="#FF0000" stroke-dasharray="4 4"/>
</svg>
