<svg width="100" height="101" viewBox="0 0 100 101" fill="none" xmlns="http://www.w3.org/2000/svg">
<circle cx="50" cy="50.5" r="50" fill="#FF0000"/>
<circle cx="50" cy="50.5" r="45" stroke="black" stroke-opacity="0.1" stroke-width="10"/>
<g clip-path="url(#clip0_55_8528)">
<g clip-path="url(#clip1_55_8528)">
<path opacity="0.914" fill-rule="evenodd" clip-rule="evenodd" d="M56.6884 67.656C57.1394 67.5998 57.5463 67.6975 57.9091 67.949C58.173 68.4685 58.059 68.8755 57.5673 69.1697C56.3016 69.3282 55.0321 69.3933 53.7587 69.365C53.2821 68.9378 53.2494 68.482 53.6611 67.9978C54.6787 67.8474 55.6879 67.7335 56.6884 67.656Z" fill="white"/>
<g clip-path="url(#clip2_55_8528)">
<path opacity="0.983" fill-rule="evenodd" clip-rule="evenodd" d="M74.9531 30.8324C74.9531 31.4509 74.9531 32.0694 74.9531 32.6879C74.078 35.398 72.2226 36.521 69.3867 36.057C67.9492 35.6157 66.9401 34.7042 66.3594 33.3226C64.7321 33.2738 63.1045 33.2575 61.4766 33.2738C61.4451 34.4698 61.4777 35.6579 61.5742 36.8383C63.564 37.6317 65.5821 38.3478 67.6289 38.9867C67.9153 39.2078 68.127 39.4845 68.2637 39.8168C68.4791 42.4294 68.3977 45.0336 68.0195 47.6293C69.9078 47.613 71.7959 47.6293 73.6836 47.6781C74.2904 47.7521 74.7136 48.0613 74.9531 48.6058C74.9531 48.9639 74.9531 49.3219 74.9531 49.68C74.7459 50.0985 74.4204 50.4078 73.9766 50.6078C71.7633 50.6566 69.5497 50.6729 67.3359 50.6566C67.0569 51.9816 66.6989 53.2837 66.2617 54.5629C67.7647 54.5204 69.2622 54.5692 70.7539 54.7093C71.6595 55.265 71.8711 56.03 71.3887 57.0043C71.1994 57.2588 70.9553 57.4378 70.6562 57.5414C68.7674 57.5577 66.8794 57.6065 64.9922 57.6879C63.7472 60.3446 62.2498 62.8348 60.5 65.1586C62.4855 65.2074 64.4711 65.2237 66.457 65.2074C66.9271 63.8748 67.8386 62.9796 69.1914 62.5218C72.0717 61.9433 73.9923 63.0338 74.9531 65.7933C74.9531 66.4444 74.9531 67.0954 74.9531 67.7465C74.0187 70.4499 72.1308 71.5403 69.2891 71.0179C67.8723 70.5777 66.8957 69.6663 66.3594 68.2836C63.5273 68.2184 60.6953 68.2184 57.8633 68.2836C55.6923 70.521 53.3485 72.5391 50.832 74.3383C50.2461 74.6637 49.6602 74.6637 49.0742 74.3383C46.5577 72.5391 44.214 70.521 42.043 68.2836C39.2109 68.2184 36.3789 68.2184 33.5469 68.2836C32.3322 70.8272 30.3628 71.6898 27.6387 70.8715C26.2295 70.2606 25.3343 69.2189 24.9531 67.7465C24.9531 67.0954 24.9531 66.4444 24.9531 65.7933C25.914 63.0338 27.8346 61.9433 30.7148 62.5218C32.0348 62.9954 32.9788 63.8743 33.5469 65.1586C35.5 65.2237 37.4531 65.2237 39.4062 65.1586C37.6337 62.829 36.1363 60.3224 34.9141 57.639C33.026 57.6065 31.138 57.5739 29.25 57.5414C28.4326 57.1596 28.1233 56.5249 28.3223 55.6371C28.4301 55.1775 28.7068 54.8682 29.1523 54.7093C30.6441 54.5692 32.1415 54.5204 33.6445 54.5629C33.2074 53.2837 32.8493 51.9816 32.5703 50.6566C30.3565 50.6729 28.143 50.6566 25.9297 50.6078C25.4859 50.4078 25.1603 50.0985 24.9531 49.68C24.9531 49.3219 24.9531 48.9639 24.9531 48.6058C25.1927 48.0613 25.6158 47.7521 26.2227 47.6781C28.1104 47.6293 29.9984 47.613 31.8867 47.6293C31.5086 45.0337 31.4272 42.4295 31.6426 39.8168C31.7793 39.4845 31.9909 39.2078 32.2773 38.9867C34.3252 38.3475 36.3434 37.6314 38.332 36.8383C38.4285 35.6579 38.4611 34.4698 38.4297 33.2738C36.8018 33.2575 35.1741 33.2738 33.5469 33.3226C32.46 35.6076 30.6697 36.519 28.1758 36.057C26.4942 35.5059 25.42 34.3829 24.9531 32.6879C24.9531 32.0694 24.9531 31.4509 24.9531 30.8324C25.8282 28.1223 27.6837 26.9993 30.5195 27.4633C31.9283 27.9279 32.9375 28.8393 33.5469 30.1976C35.8255 30.2302 38.1042 30.2627 40.3828 30.2953C40.8782 30.4325 41.22 30.7418 41.4082 31.223C41.4407 32.6553 41.4733 34.0876 41.5059 35.5199C43.1401 34.7112 44.7189 33.816 46.2422 32.8343C47.3731 32.0293 48.4474 31.1504 49.4648 30.1976C49.9473 30.096 50.4029 30.1611 50.832 30.3929C51.685 31.3222 52.629 32.136 53.6641 32.8343C55.1873 33.816 56.7661 34.7112 58.4004 35.5199C58.4329 34.0876 58.4655 32.6553 58.498 31.223C58.6862 30.7418 59.028 30.4325 59.5234 30.2953C61.8021 30.2627 64.0808 30.2302 66.3594 30.1976C67.3074 28.0956 68.9351 27.1516 71.2422 27.3656C73.1731 27.7915 74.4102 28.9471 74.9531 30.8324ZM49.8555 40.0121C52.9333 40.2237 54.9679 41.7862 55.959 44.6996C56.1254 45.571 56.2394 46.4499 56.3008 47.3363C57.0462 47.6217 57.5507 48.1425 57.8145 48.8988C57.9744 52.1494 58.007 55.4046 57.9121 58.6644C57.645 59.6802 57.0103 60.3476 56.0078 60.6664C52.1699 60.8257 48.3287 60.8582 44.4844 60.764C43.1767 60.628 42.3466 59.9281 41.9941 58.6644C41.8992 55.4046 41.9318 52.1494 42.0918 48.8988C42.349 48.1371 42.8535 47.6162 43.6055 47.3363C43.6073 43.0729 45.6906 40.6315 49.8555 40.0121ZM49.6602 52.0238C50.8893 52.0815 51.4752 52.7326 51.418 53.9769C51.3561 55.6168 50.5748 56.1539 49.0742 55.5883C48.6547 55.1388 48.4594 54.6017 48.4883 53.9769C48.436 53.037 48.8267 52.3859 49.6602 52.0238Z" fill="white"/>
<path opacity="0.956" fill-rule="evenodd" clip-rule="evenodd" d="M49.1666 42.9464C52.0915 42.8114 53.4913 44.2111 53.3658 47.1456C51.0872 47.1456 48.8085 47.1456 46.5299 47.1456C46.3536 45.05 47.2325 43.6503 49.1666 42.9464Z" fill="white"/>
<path opacity="0.976" fill-rule="evenodd" clip-rule="evenodd" d="M44.7734 49.9766C48.2239 49.9766 51.6745 49.9766 55.125 49.9766C55.125 52.6133 55.125 55.25 55.125 57.8867C51.6745 57.8867 48.2239 57.8867 44.7734 57.8867C44.7734 55.25 44.7734 52.6133 44.7734 49.9766ZM49.6562 52.0273C48.8228 52.3895 48.4321 53.0405 48.4844 53.9805C48.4555 54.6053 48.6508 55.1424 49.0703 55.5918C50.5709 56.1574 51.3521 55.6203 51.4141 53.9805C51.4713 52.7361 50.8854 52.0851 49.6562 52.0273Z" fill="white"/>
</g>
</g>
</g>
<defs>
<clipPath id="clip0_55_8528">
<rect width="50" height="50" fill="white" transform="translate(25 26)"/>
</clipPath>
<clipPath id="clip1_55_8528">
<rect width="50" height="50" fill="white" transform="translate(25 26)"/>
</clipPath>
<clipPath id="clip2_55_8528">
<rect width="50" height="50" fill="white" transform="translate(25 26)"/>
</clipPath>
</defs>
</svg>
