<svg width="262" height="39" viewBox="0 0 262 39" fill="none" xmlns="http://www.w3.org/2000/svg">
<path d="M113.24 6.35742L98.9253 30.8007L84.605 6.35742H74.7461L94.4696 38.937H103.278L123.001 6.35742H113.24Z" fill="black"/>
<path d="M150.862 6.35742V13.9367H167.428V38.937H175.788V13.9367H192.353V6.35742H150.862Z" fill="black"/>
<path d="M261.143 26.9249C260.878 25.9833 260.39 25.0875 259.696 24.2607C259.001 23.4281 258.042 22.6874 256.848 22.0558C255.642 21.4242 254.074 20.9419 252.197 20.6318L231.216 18.0996C229.987 17.8814 229.172 17.623 228.695 17.2958C228.132 16.9168 227.834 16.3369 227.834 15.6306C227.834 14.6085 228.454 13.397 231.382 13.397H259.902V6.35742H231.187C229.149 6.35742 227.397 6.60432 225.991 7.08664C224.595 7.55747 223.453 8.21206 222.591 9.02741C221.736 9.83702 221.104 10.8074 220.714 11.8984C220.318 13.018 220.117 14.2238 220.117 15.4813C220.117 16.4345 220.254 17.4106 220.53 18.3982C220.8 19.3571 221.282 20.2528 221.954 21.0624C222.637 21.8778 223.573 22.6128 224.733 23.2386C225.905 23.8702 227.42 24.3353 229.229 24.6109L250.463 27.1948C251.605 27.3728 252.403 27.614 252.914 27.9355C253.517 28.3202 253.839 28.9346 253.839 29.7155C253.839 30.5538 253.443 31.1912 252.713 31.507C252.116 31.7711 251.295 31.8974 250.199 31.8974H220.892V38.937H250.537C252.576 38.937 254.327 38.6901 255.739 38.2135C257.129 37.7369 258.272 37.0824 259.133 36.267C259.988 35.4574 260.609 34.5043 260.982 33.4248C261.367 32.3223 261.562 31.1223 261.562 29.8591C261.562 28.8772 261.424 27.8896 261.143 26.9249Z" fill="black"/>
<path d="M18.1643 10.3301L5.94182 26.0725L0 18.4279L6.28652 10.3301H18.1643Z" fill="#FF0000"/>
<path d="M38.7515 5.4707L14.2722 35.7446L8.47754 28.573L27.1563 5.4707H38.7515Z" fill="#FF0000"/>
<path d="M59.3327 0.636719L28.4273 38.1764H16.9492L47.8547 0.636719H59.3327Z" fill="#FF0000"/>
</svg>
