<svg width="100" height="101" viewBox="0 0 100 101" fill="none" xmlns="http://www.w3.org/2000/svg">
<circle cx="50" cy="50.5" r="50" fill="#FF0000"/>
<circle cx="50" cy="50.5" r="45" stroke="black" stroke-opacity="0.1" stroke-width="10"/>
<g clip-path="url(#clip0_55_6522)">
<g clip-path="url(#clip1_55_6522)">
<g clip-path="url(#clip2_55_6522)">
<path opacity="0.982" fill-rule="evenodd" clip-rule="evenodd" d="M49.0742 25.4531C49.6602 25.4531 50.2461 25.4531 50.832 25.4531C52.1181 25.8946 53.2086 26.6433 54.1035 27.6992C55.5957 29.5758 56.7351 31.6592 57.5215 33.9492C58.1311 35.6388 58.603 37.3641 58.9375 39.125C52.9479 39.125 46.9583 39.125 40.9688 39.125C41.6642 35.1975 43.1127 31.5842 45.3145 28.2852C46.3062 26.9701 47.5594 26.0261 49.0742 25.4531Z" fill="white"/>
<path opacity="0.969" fill-rule="evenodd" clip-rule="evenodd" d="M42.9219 26.3345C43.0366 26.3131 43.1343 26.3456 43.2148 26.4321C41.1963 29.2447 39.7478 32.3371 38.8691 35.7095C38.5737 36.8124 38.2971 37.9192 38.0391 39.0298C34.5892 39.1275 31.1386 39.16 27.6875 39.1275C29.4545 35.422 32.0261 32.3784 35.4023 29.9966C37.7321 28.4085 40.2387 27.1878 42.9219 26.3345Z" fill="white"/>
<path opacity="0.97" fill-rule="evenodd" clip-rule="evenodd" d="M56.6875 26.3281C63.0727 28.1757 68.0043 31.9192 71.4824 37.5586C71.8067 38.0443 72.0509 38.5651 72.2148 39.1211C68.7637 39.1536 65.3132 39.1211 61.8633 39.0234C61.0116 34.4137 59.2864 30.182 56.6875 26.3281Z" fill="white"/>
<path opacity="0.987" fill-rule="evenodd" clip-rule="evenodd" d="M24.9531 52.6953C24.9531 51.1979 24.9531 49.7005 24.9531 48.2031C25.1946 46.0852 25.6504 44.0019 26.3203 41.9531C30.0638 41.9531 33.8073 41.9531 37.5508 41.9531C36.7695 47.6172 36.7695 53.2812 37.5508 58.9453C33.8073 58.9453 30.0638 58.9453 26.3203 58.9453C25.6504 56.8966 25.1946 54.8133 24.9531 52.6953Z" fill="white"/>
<path opacity="0.99" fill-rule="evenodd" clip-rule="evenodd" d="M40.3828 41.9531C46.763 41.9531 53.1433 41.9531 59.5234 41.9531C60.3047 47.6172 60.3047 53.2812 59.5234 58.9453C53.1433 58.9453 46.763 58.9453 40.3828 58.9453C39.6016 53.2812 39.6016 47.6171 40.3828 41.9531Z" fill="white"/>
<path opacity="0.987" fill-rule="evenodd" clip-rule="evenodd" d="M74.9492 48.2031C74.9492 49.7005 74.9492 51.1979 74.9492 52.6953C74.7076 54.8135 74.252 56.8968 73.582 58.9453C69.8386 58.9453 66.095 58.9453 62.3516 58.9453C63.1328 53.2812 63.1328 47.6172 62.3516 41.9531C66.095 41.9531 69.8386 41.9531 73.582 41.9531C74.252 44.0017 74.7076 46.085 74.9492 48.2031Z" fill="white"/>
<path opacity="0.969" fill-rule="evenodd" clip-rule="evenodd" d="M27.6875 61.7778C31.1386 61.7453 34.5892 61.7778 38.0391 61.8755C38.7518 65.4296 39.9398 68.815 41.6035 72.0317C42.0921 72.879 42.6292 73.6929 43.2148 74.4731C43.166 74.5057 43.1172 74.5383 43.0684 74.5708C36.7449 72.6816 31.8621 68.9381 28.4199 63.3403C28.0956 62.8546 27.8515 62.3338 27.6875 61.7778Z" fill="white"/>
<path opacity="0.982" fill-rule="evenodd" clip-rule="evenodd" d="M50.832 75.4531C50.2461 75.4531 49.6602 75.4531 49.0742 75.4531C47.7882 75.0117 46.6977 74.263 45.8027 73.207C43.7124 70.3928 42.2476 67.2678 41.4082 63.832C41.215 63.1571 41.0686 62.4735 40.9688 61.7812C46.9583 61.7812 52.9479 61.7812 58.9375 61.7812C58.3272 65.0934 57.2042 68.2184 55.5684 71.1562C54.6827 72.7581 53.462 74.0438 51.9062 75.0137C51.5345 75.1531 51.1764 75.2996 50.832 75.4531Z" fill="white"/>
<path opacity="0.97" fill-rule="evenodd" clip-rule="evenodd" d="M61.8633 61.7812C65.3138 61.7812 68.7644 61.7812 72.2148 61.7812C70.6809 65.0266 68.4998 67.7771 65.6719 70.0332C63.0257 72.0971 60.0797 73.6107 56.834 74.5742C56.7852 74.5417 56.7363 74.5091 56.6875 74.4766C58.7061 71.6641 60.1546 68.5716 61.0332 65.1992C61.3412 64.0658 61.6179 62.9265 61.8633 61.7812Z" fill="white"/>
</g>
</g>
</g>
<defs>
<clipPath id="clip0_55_6522">
<rect width="50" height="50" fill="white" transform="translate(25 25.5)"/>
</clipPath>
<clipPath id="clip1_55_6522">
<rect width="50" height="50" fill="white" transform="translate(25 25.5)"/>
</clipPath>
<clipPath id="clip2_55_6522">
<rect width="50" height="50" fill="white" transform="translate(25 25.5)"/>
</clipPath>
</defs>
</svg>
