<svg width="132" height="36" viewBox="0 0 132 36" fill="none" xmlns="http://www.w3.org/2000/svg">
<path fill-rule="evenodd" clip-rule="evenodd" d="M86.5897 21.5407V21.5844C86.5897 21.9995 86.2402 22.3272 85.825 22.3272H81.6519C81.2367 22.3272 80.8872 21.9995 80.8872 21.5844C80.8872 21.5625 80.8872 21.5625 80.8872 21.5407C81.3023 19.5961 81.8922 17.9137 82.7225 16.1003C83.4435 14.833 84.0553 14.833 84.7326 16.1003C85.5628 17.9793 86.1528 19.6398 86.5897 21.5407ZM86.8519 12.0582C91.6369 13.4565 94.9797 17.8482 94.9797 22.8079V24.5777C94.9797 25.4079 94.3024 26.0852 93.4503 26.0852H82.0452C81.63 26.0852 81.2804 26.413 81.2804 26.8281C81.2804 27.4399 81.8267 28.5979 82.0452 29.2096C82.7443 30.8483 84.4048 31.9845 86.262 31.9845C87.9881 31.9845 89.8452 31.6786 91.5713 31.5475C91.5932 31.5475 91.6369 31.5475 91.6806 31.5475C92.3579 31.5475 92.9041 32.0719 92.9041 32.7273C92.9041 33.2517 92.5545 33.7105 92.052 33.8635C86.4149 35.6114 82.6788 36.2013 76.7795 34.082C72.8467 32.2248 70.2686 28.2483 70.2686 23.944V22.9608C70.2686 18.6566 72.8904 14.6364 76.8232 12.8448C79.8384 11.1842 83.5964 11.1842 86.8519 12.0582Z" fill="white"/>
<path fill-rule="evenodd" clip-rule="evenodd" d="M66.7688 9.15146V6.52958C66.7688 5.50268 65.9823 4.14805 63.9066 4.89091C59.4931 8.10271 54.8611 10.0036 50.3384 10.2658C49.4863 10.3313 48.7871 11.0742 48.7871 11.9481C48.7871 12.8876 49.5518 13.6305 50.4913 13.6305H51.1905C52.2392 13.6305 53.0914 14.4608 53.0914 15.4877V34.5618H66.7688V16.3179C66.7688 15.6625 67.1184 15.0507 67.6865 14.723C68.7352 14.1112 70.2865 13.5213 70.2865 12.1229C70.2865 11.096 69.4344 10.2658 68.3856 10.2658C67.6209 10.2876 66.7688 10.1565 66.7688 9.15146Z" fill="white"/>
<path fill-rule="evenodd" clip-rule="evenodd" d="M34.6337 15.5319L29.1715 14.6797C28.5597 14.5924 28.1009 14.0461 28.1009 13.4125C28.1009 12.7133 28.6689 12.1453 29.39 12.1453H41.4506C45.2305 12.1453 48.2893 15.1604 48.2893 18.8748V34.5842H36.8842V33.4699L33.0824 34.5842H30.4169C26.637 34.5842 23.5781 32.2245 23.5781 27.0244C23.5781 21.8244 26.6588 19.6176 30.4169 19.6176H36.8842V18.11C36.8842 16.8428 35.901 15.7285 34.6337 15.5319ZM36.8623 30.4766C35.2018 29.9959 32.1211 28.1387 32.1211 26.7404C32.1211 25.342 35.1799 23.4849 36.8623 23.0042V30.4766Z" fill="white"/>
<path fill-rule="evenodd" clip-rule="evenodd" d="M14.0938 34.5848C17.8737 34.5848 20.9544 31.5697 20.9544 27.8553C20.9544 26.9595 20.7359 26.02 20.3863 25.1898L14.1812 11.0098C14.0938 10.7913 14.0283 10.5291 14.0283 10.2669C14.0283 9.24002 14.8804 8.38791 15.9291 8.38791H19.0535C20.1023 8.38791 20.9544 7.55765 20.9544 6.53075C20.9544 5.50385 20.1023 4.67358 19.0535 4.67358H6.9055C3.12563 4.67358 0.0667709 7.68874 0.0667709 11.4031C0.0667709 12.2989 0.285261 13.2384 0.634844 14.0686L6.8618 28.2486C6.9492 28.4671 7.01474 28.7512 7.01474 28.9915C7.01474 30.0184 6.16263 30.8705 5.11388 30.8705L1.94578 30.8487C0.897032 30.8487 0.0449219 31.7008 0.0449219 32.7277C0.0449219 33.7546 0.897032 34.6067 1.94578 34.6067L14.0938 34.5848Z" fill="white"/>
<path fill-rule="evenodd" clip-rule="evenodd" d="M98.912 9.5896C98.1036 9.80809 97.5137 10.551 97.5137 11.3812V34.5848H111.191V6.53075C111.191 5.50385 110.339 4.67358 109.29 4.67358C108.416 4.67358 107.652 4.82653 106.581 5.87528C105.008 7.22991 102.998 8.34421 98.912 9.5896Z" fill="white"/>
<path fill-rule="evenodd" clip-rule="evenodd" d="M122.751 8.01531V0.411865L116.022 4.21359L122.751 8.01531Z" fill="white"/>
<path fill-rule="evenodd" clip-rule="evenodd" d="M123.863 8.01531L130.57 4.21359L123.863 0.411865V8.01531Z" fill="white"/>
<path fill-rule="evenodd" clip-rule="evenodd" d="M124.43 8.9775L131.137 12.7792V5.17578L124.43 8.9775Z" fill="white"/>
<path fill-rule="evenodd" clip-rule="evenodd" d="M123.863 9.91235V17.5158L130.57 13.7141L123.863 9.91235Z" fill="white"/>
<path fill-rule="evenodd" clip-rule="evenodd" d="M122.751 9.91235L116.022 13.7141L122.751 17.5158V9.91235Z" fill="white"/>
<path fill-rule="evenodd" clip-rule="evenodd" d="M122.184 8.9775L115.477 5.17578V12.7792L122.184 8.9775Z" fill="white"/>
<path fill-rule="evenodd" clip-rule="evenodd" d="M118.878 27.7439C119.468 27.7439 120.036 27.8968 120.56 28.1809C121.107 28.4649 121.522 28.9019 121.828 29.4481C122.133 29.9943 122.286 30.5624 122.286 31.1523C122.286 31.7423 122.133 32.3103 121.828 32.8566C121.522 33.4028 121.107 33.8179 120.56 34.1238C120.014 34.4297 119.446 34.5826 118.856 34.5826C118.266 34.5826 117.698 34.4297 117.152 34.1238C116.606 33.8179 116.19 33.4028 115.885 32.8566C115.579 32.3103 115.426 31.7423 115.426 31.1523C115.426 30.5624 115.579 29.9943 115.885 29.4481C116.19 28.9019 116.606 28.4868 117.152 28.1809C117.742 27.8968 118.288 27.7439 118.878 27.7439ZM118.878 28.4212C118.419 28.4212 117.96 28.5305 117.523 28.7708C117.086 29.0111 116.759 29.3389 116.496 29.7759C116.256 30.2128 116.125 30.6717 116.125 31.1523C116.125 31.633 116.256 32.0918 116.496 32.5288C116.737 32.9658 117.086 33.2935 117.501 33.5339C117.938 33.7742 118.397 33.9053 118.856 33.9053C119.337 33.9053 119.796 33.7742 120.211 33.5339C120.648 33.2935 120.975 32.944 121.216 32.5288C121.456 32.0918 121.587 31.633 121.587 31.1523C121.587 30.6717 121.456 30.2128 121.216 29.7759C120.975 29.3389 120.626 28.9893 120.189 28.7708C119.796 28.5305 119.359 28.4212 118.878 28.4212ZM117.327 32.9877V29.3607H118.07C118.747 29.3607 119.14 29.3607 119.227 29.3607C119.468 29.3826 119.664 29.4263 119.796 29.5137C119.927 29.5792 120.036 29.7103 120.123 29.8633C120.211 30.0162 120.254 30.191 120.254 30.3876C120.254 30.6498 120.167 30.8683 119.992 31.0649C119.817 31.2616 119.577 31.3708 119.271 31.4145C119.38 31.4582 119.468 31.5019 119.533 31.5456C119.599 31.5893 119.686 31.6767 119.774 31.8297C119.796 31.8734 119.883 32.0044 120.036 32.2666L120.473 32.9877H119.555L119.249 32.3977C119.053 32.0045 118.878 31.7641 118.747 31.6549C118.616 31.5456 118.441 31.5019 118.244 31.5019H118.048V32.9877H117.327ZM118.07 30.9338H118.375C118.791 30.9338 119.053 30.912 119.162 30.8902C119.271 30.8465 119.337 30.8028 119.402 30.7154C119.468 30.628 119.49 30.5406 119.49 30.4313C119.49 30.3221 119.468 30.2347 119.402 30.1691C119.337 30.0817 119.271 30.038 119.162 29.9943C119.053 29.9506 118.791 29.9506 118.375 29.9506H118.07V30.9338Z" fill="white"/>
</svg>
