<svg width="100" height="100" viewBox="0 0 100 100" fill="none" xmlns="http://www.w3.org/2000/svg">
<circle cx="50" cy="50" r="50" fill="#FF0000"/>
<circle cx="50" cy="50" r="45" stroke="black" stroke-opacity="0.1" stroke-width="10"/>
<g clip-path="url(#clip0_198_2175)">
<g clip-path="url(#clip1_198_2175)">
<path opacity="0.99" fill-rule="evenodd" clip-rule="evenodd" d="M58.6454 28.2836C57.6954 28.1528 56.8165 28.3318 56.0086 28.8207C46.6336 35.5915 37.2586 42.3624 27.8836 49.1332C27.2703 49.7481 27.1563 50.4479 27.5419 51.2329C32.2457 55.0251 36.9494 58.8175 41.6532 62.6098C42.4505 63.3688 43.2968 63.4339 44.1922 62.8051C52.3954 56.9457 60.5985 51.0864 68.8016 45.227C70.0859 44.1424 70.3951 42.8241 69.7293 41.2719C66.5067 37.2355 63.284 33.199 60.0614 29.1625C59.6373 28.7802 59.1652 28.4872 58.6454 28.2836ZM38.6258 48.8891C37.1633 49.0149 36.6913 49.7635 37.2098 51.1352C37.9585 51.9164 38.7072 51.9164 39.4559 51.1352C39.9432 50.0931 39.6665 49.3445 38.6258 48.8891Z" fill="white"/>
<path opacity="0.983" fill-rule="evenodd" clip-rule="evenodd" d="M75.0469 71.7383C75.0469 66.3672 75.0469 60.9961 75.0469 55.625C74.5995 54.8166 73.9159 54.5399 72.9961 54.7949C72.5892 54.9414 72.3125 55.2181 72.166 55.625C72.1172 56.8615 72.1009 58.0985 72.1172 59.3359C70.9123 59.3522 69.7079 59.3359 68.5039 59.2871C66.5202 59.06 64.7949 58.2787 63.3281 56.9434C63.794 56.6369 64.2335 56.2951 64.6465 55.918C64.8682 55.4854 64.9333 55.0296 64.8418 54.5508C64.4267 53.8267 63.9547 53.1431 63.4258 52.5C59.4372 55.3243 55.4658 58.1727 51.5117 61.0449C51.8331 61.5086 52.1424 61.9806 52.4395 62.4609C52.9281 63.0979 53.5629 63.3096 54.3438 63.0957C54.9134 62.7214 55.4831 62.347 56.0527 61.9727C60.4164 66.5366 65.7712 68.62 72.1172 68.2227C72.1009 69.395 72.1172 70.5669 72.166 71.7383C72.5906 72.5601 73.2579 72.8367 74.168 72.5684C74.5767 72.4035 74.8696 72.1269 75.0469 71.7383Z" fill="white"/>
<path opacity="0.96" fill-rule="evenodd" clip-rule="evenodd" d="M25.0469 54.9473C25.0469 55.3054 25.0469 55.6634 25.0469 56.0215C27.4359 59.1498 29.91 62.226 32.4688 65.25C32.9309 65.4845 33.4191 65.5496 33.9336 65.4453C35.165 64.6369 36.3695 63.7906 37.5469 62.9062C33.8212 59.888 30.0777 56.8932 26.3164 53.9219C25.752 54.0757 25.3288 54.4175 25.0469 54.9473Z" fill="white"/>
</g>
</g>
<defs>
<clipPath id="clip0_198_2175">
<rect width="50" height="50" fill="white" transform="translate(25 25.5)"/>
</clipPath>
<clipPath id="clip1_198_2175">
<rect width="50" height="50" fill="white" transform="matrix(-1 0 0 1 75 25.5)"/>
</clipPath>
</defs>
</svg>
