<svg width="100" height="101" viewBox="0 0 100 101" fill="none" xmlns="http://www.w3.org/2000/svg">
<circle cx="50" cy="50.5" r="50" fill="#FF0000"/>
<circle cx="50" cy="50.5" r="45" stroke="black" stroke-opacity="0.1" stroke-width="10"/>
<g clip-path="url(#clip0_55_6765)">
<g clip-path="url(#clip1_55_6765)">
<g clip-path="url(#clip2_55_6765)">
<path opacity="0.98" fill-rule="evenodd" clip-rule="evenodd" d="M48.8792 25.9531C49.5953 25.9531 50.3115 25.9531 51.0276 25.9531C54.213 26.9126 55.629 29.0611 55.2757 32.3984C54.2374 35.7586 51.9751 37.1421 48.4886 36.5488C45.551 35.4771 44.2651 33.3774 44.6311 30.25C45.2185 27.9862 46.6346 26.5539 48.8792 25.9531Z" fill="white"/>
<path opacity="0.982" fill-rule="evenodd" clip-rule="evenodd" d="M43.7021 36.9895C43.8049 36.975 43.9025 36.9912 43.9951 37.0384C46.8538 39.7064 50.0764 40.2598 53.6631 38.6985C54.5053 38.1883 55.3028 37.6185 56.0556 36.9895C57.785 38.168 58.8266 39.7955 59.1806 41.8723C59.2458 43.1094 59.2458 44.3463 59.1806 45.5833C59.0342 45.9902 58.7575 46.2669 58.3506 46.4134C56.0396 46.4622 53.7284 46.4785 51.417 46.4622C51.4007 48.5458 51.417 50.6291 51.4658 52.7122C53.2405 53.4614 54.2008 54.7961 54.3467 56.7161C56.462 57.3181 58.5616 57.9691 60.6455 58.6692C62.2198 55.8076 64.5798 54.8473 67.7256 55.7884C70.2609 57.0334 71.3513 59.068 70.997 61.8919C70.2814 64.6426 68.5073 66.0749 65.6748 66.1888C63.6691 66.1708 62.1229 65.3245 61.0361 63.6497C60.7107 63.0141 60.4341 62.3632 60.206 61.6966C58.007 61.0207 55.8097 60.3371 53.6142 59.6458C52.8638 60.4199 51.9686 60.957 50.9287 61.2571C49.5205 61.5316 48.251 61.2387 47.1201 60.3782C46.8713 60.0965 46.5945 59.8523 46.29 59.6458C44.0945 60.3371 41.8972 61.0207 39.6982 61.6966C38.4925 65.4246 35.9859 66.8081 32.1787 65.847C29.2426 64.3191 28.2498 61.9591 29.2002 58.7669C30.7281 55.8308 33.0881 54.838 36.2803 55.7884C37.6256 56.3849 38.6183 57.3453 39.2588 58.6692C41.3427 57.9691 43.4423 57.3181 45.5576 56.7161C45.7035 54.7961 46.6637 53.4614 48.4385 52.7122C48.4873 50.6291 48.5036 48.5458 48.4873 46.4622C46.1759 46.4785 43.8646 46.4622 41.5537 46.4134C41.2378 46.2806 40.9936 46.0689 40.8213 45.7786C40.6622 44.4857 40.6297 43.1837 40.7236 41.8723C41.0954 39.858 42.0883 38.2304 43.7021 36.9895Z" fill="white"/>
<path opacity="0.987" fill-rule="evenodd" clip-rule="evenodd" d="M42.6289 75.9492C37.03 75.9492 31.431 75.9492 25.832 75.9492C25.6868 75.8219 25.5241 75.708 25.3438 75.6074C25.2269 75.4106 25.0967 75.2315 24.9531 75.0703C24.9531 73.8333 24.9531 72.5964 24.9531 71.3594C25.3467 69.3034 26.4046 67.6759 28.127 66.4766C32.196 69.9922 36.2649 69.9922 40.334 66.4766C41.9465 67.519 42.9557 68.9839 43.3613 70.8711C43.5154 72.2662 43.548 73.666 43.459 75.0703C43.2941 75.479 43.0175 75.772 42.6289 75.9492Z" fill="white"/>
<path opacity="0.987" fill-rule="evenodd" clip-rule="evenodd" d="M74.9532 71.3594C74.9532 72.5964 74.9532 73.8333 74.9532 75.0703C74.8258 75.2155 74.7119 75.3783 74.6114 75.5586C74.4146 75.6755 74.2355 75.8057 74.0742 75.9492C68.4753 75.9492 62.8763 75.9492 57.2774 75.9492C56.8888 75.772 56.6121 75.479 56.4473 75.0703C56.3583 73.666 56.3909 72.2662 56.545 70.8711C56.9506 68.9839 57.9598 67.519 59.5723 66.4766C63.6413 69.9922 67.7103 69.9922 71.7793 66.4766C73.5017 67.6759 74.5596 69.3034 74.9532 71.3594Z" fill="white"/>
</g>
</g>
</g>
<defs>
<clipPath id="clip0_55_6765">
<rect width="50" height="50" fill="white" transform="translate(25 26)"/>
</clipPath>
<clipPath id="clip1_55_6765">
<rect width="50" height="50" fill="white" transform="translate(25 26)"/>
</clipPath>
<clipPath id="clip2_55_6765">
<rect width="50" height="50" fill="white" transform="translate(25 26)"/>
</clipPath>
</defs>
</svg>
