<svg width="100" height="101" viewBox="0 0 100 101" fill="none" xmlns="http://www.w3.org/2000/svg">
<circle cx="50" cy="50.5" r="50" fill="#FF0000"/>
<circle cx="50" cy="50.5" r="45" stroke="black" stroke-opacity="0.1" stroke-width="10"/>
<g clip-path="url(#clip0_55_8301)">
<g clip-path="url(#clip1_55_8301)">
<g clip-path="url(#clip2_55_8301)">
<path opacity="0.984" fill-rule="evenodd" clip-rule="evenodd" d="M74.9531 45.19C74.9531 45.7434 74.9531 46.2968 74.9531 46.8502C71.5026 46.8502 68.0521 46.8502 64.6016 46.8502C64.5237 44.6158 63.889 42.565 62.6973 40.6978C61.8125 39.6839 60.722 38.984 59.4258 38.5982C58.4977 38.3447 57.5536 38.1819 56.5938 38.1099C52.2969 37.9204 48 37.8878 43.7031 38.0123C41.6213 38.0661 39.7333 38.6846 38.0391 39.8678C36.9112 40.9667 36.1463 42.285 35.7441 43.8228C35.5131 44.8107 35.334 45.8036 35.207 46.8014C31.7892 46.8502 28.3712 46.8665 24.9531 46.8502C24.9531 46.3619 24.9531 45.8736 24.9531 45.3853C25.5429 38.1693 29.3515 33.6283 36.3789 31.7623C40.837 30.672 45.3618 30.2 49.9531 30.3463C54.5447 30.2 59.0694 30.672 63.5273 31.7623C70.5057 33.5704 74.3143 38.0463 74.9531 45.19Z" fill="white"/>
<path opacity="0.988" fill-rule="evenodd" clip-rule="evenodd" d="M40.7695 43.2405C41.8243 43.2104 42.866 43.2917 43.8945 43.4846C43.9759 43.566 44.0573 43.6474 44.1387 43.7287C44.1875 44.5419 44.2037 45.3557 44.1875 46.1702C47.7031 46.1702 51.2188 46.1702 54.7344 46.1702C54.7182 45.4207 54.7344 44.672 54.7832 43.9241C54.8099 43.7454 54.8913 43.599 55.0273 43.4846C56.533 43.1435 58.0304 43.1597 59.5195 43.5334C59.5871 43.5847 59.6359 43.6498 59.666 43.7287C59.6985 44.7378 59.7312 45.747 59.7637 46.7561C63.345 50.9579 66.6653 55.3525 69.7246 59.9397C69.9773 60.3473 70.2052 60.7704 70.4082 61.2092C70.4733 64.2366 70.4733 67.2639 70.4082 70.2912C70.3052 70.9071 69.9634 71.314 69.3828 71.5119C56.1016 71.5771 42.8203 71.5771 29.5391 71.5119C29.0996 71.3329 28.7904 71.0237 28.6113 70.5842C28.5462 67.4267 28.5462 64.2691 28.6113 61.1116C29.9938 58.7858 31.4912 56.5397 33.1035 54.3733C35.0475 51.778 37.0656 49.2389 39.1582 46.7561C39.1907 45.747 39.2233 44.7378 39.2559 43.7287C39.3744 43.5775 39.5209 43.4636 39.6953 43.3869C40.0719 43.3697 40.43 43.3208 40.7695 43.2405ZM43.1133 50.0764C44.3616 49.9416 44.9638 50.495 44.9199 51.7366C44.3946 52.7813 43.6297 52.9928 42.625 52.3713C41.998 51.4373 42.1608 50.6724 43.1133 50.0764ZM48.9727 50.0764C50.0107 49.9264 50.6292 50.3659 50.8281 51.3948C50.4999 52.6823 49.7512 53.0403 48.582 52.469C48.0374 51.8973 47.9561 51.2625 48.3379 50.5647C48.5298 50.3645 48.7414 50.2017 48.9727 50.0764ZM54.832 50.0764C56.373 50.0662 56.8774 50.7824 56.3457 52.2248C55.4746 53.0086 54.6934 52.911 54.002 51.9319C53.796 51.1062 54.0727 50.4877 54.832 50.0764ZM43.4063 54.8616C44.5278 54.9266 45.0324 55.5125 44.9199 56.6194C44.5184 57.5239 43.8511 57.8006 42.918 57.4494C42.0895 56.7618 42.0243 56.013 42.7227 55.2034C42.9595 55.0849 43.1874 54.971 43.4063 54.8616ZM49.2656 54.8616C50.5797 55.0509 51.0191 55.7671 50.584 57.01C49.9514 57.6843 49.2515 57.7657 48.4844 57.2541C47.7848 56.1325 48.0452 55.3349 49.2656 54.8616ZM55.125 54.8616C56.4954 55.0813 56.9022 55.83 56.3457 57.1077C55.774 57.6523 55.1393 57.7336 54.4414 57.3518C53.7615 56.5677 53.794 55.8191 54.5391 55.1057C54.7452 55.0232 54.9405 54.9418 55.125 54.8616ZM43.3086 59.7444C44.7374 59.8358 45.2095 60.552 44.7246 61.8928C44.1818 62.5202 43.5471 62.6341 42.8203 62.2346C42.1897 61.6948 42.0758 61.06 42.4785 60.3303C42.7053 60.0476 42.9819 59.8523 43.3086 59.7444ZM49.168 59.7444C50.1219 59.7164 50.6752 60.1722 50.8281 61.1116C50.5559 62.3382 49.8397 62.7125 48.6797 62.2346C48.0526 61.6957 47.9388 61.061 48.3379 60.3303C48.5647 60.0476 48.8413 59.8523 49.168 59.7444ZM55.0273 59.7444C56.5839 59.9765 56.9745 60.7741 56.1992 62.1369C55.2745 62.7122 54.5421 62.5331 54.002 61.5998C53.7865 60.6629 54.1283 60.0444 55.0273 59.7444Z" fill="white"/>
<path opacity="0.966" fill-rule="evenodd" clip-rule="evenodd" d="M24.9531 47.9219C28.4036 47.9219 31.8542 47.9219 35.3047 47.9219C35.3325 48.8298 35.121 49.6761 34.6699 50.4609C34.141 50.9744 33.5062 51.2836 32.7656 51.3887C31.0078 51.4538 29.25 51.4538 27.4922 51.3887C26.1075 51.2561 25.2611 50.5236 24.9531 49.1914C24.9531 48.7683 24.9531 48.345 24.9531 47.9219Z" fill="white"/>
<path opacity="0.962" fill-rule="evenodd" clip-rule="evenodd" d="M74.9483 47.9219C74.9483 48.3125 74.9483 48.7031 74.9483 49.0938C74.7166 50.1558 74.0655 50.823 72.9952 51.0957C71.014 51.3577 69.0284 51.3903 67.0382 51.1934C65.2226 50.871 64.4089 49.7806 64.5967 47.9219C68.0472 47.9219 71.4978 47.9219 74.9483 47.9219Z" fill="white"/>
</g>
</g>
</g>
<defs>
<clipPath id="clip0_55_8301">
<rect width="50" height="50" fill="white" transform="translate(25 26)"/>
</clipPath>
<clipPath id="clip1_55_8301">
<rect width="50" height="50" fill="white" transform="translate(25 26)"/>
</clipPath>
<clipPath id="clip2_55_8301">
<rect width="50" height="50" fill="white" transform="translate(25 26)"/>
</clipPath>
</defs>
</svg>
