<svg width="160" height="25" viewBox="0 0 160 25" fill="none" xmlns="http://www.w3.org/2000/svg">
<path d="M69.2706 4.28687L60.5143 19.2389L51.7545 4.28687H45.7238L57.7887 24.2159H63.1766L75.2415 4.28687H69.2706Z" fill="white"/>
<path d="M92.2866 4.28687V8.92315H102.42V24.2159H107.534V8.92315H117.667V4.28687H92.2866Z" fill="white"/>
<path d="M159.744 16.8681C159.582 16.2921 159.284 15.7441 158.859 15.2383C158.434 14.7291 157.847 14.276 157.116 13.8896C156.379 13.5033 155.42 13.2082 154.271 13.0185L141.437 11.4696C140.686 11.3361 140.187 11.1781 139.895 10.9779C139.551 10.7461 139.369 10.3913 139.369 9.9593C139.369 9.3341 139.748 8.59299 141.539 8.59299H158.985V4.28687H141.42C140.173 4.28687 139.102 4.43789 138.241 4.73293C137.388 5.02094 136.689 5.42135 136.162 5.9201C135.638 6.41534 135.252 7.00893 135.013 7.67627C134.771 8.36118 134.648 9.09877 134.648 9.86797C134.648 10.451 134.732 11.0481 134.901 11.6522C135.066 12.2388 135.361 12.7867 135.772 13.282C136.19 13.7807 136.762 14.2303 137.472 14.6132C138.188 14.9995 139.116 15.284 140.222 15.4526L153.211 17.0332C153.91 17.142 154.398 17.2896 154.711 17.4862C155.079 17.7216 155.276 18.0974 155.276 18.5751C155.276 19.0879 155.034 19.4777 154.588 19.6709C154.222 19.8325 153.72 19.9098 153.049 19.9098H135.122V24.2159H153.256C154.503 24.2159 155.575 24.0649 156.439 23.7733C157.289 23.4818 157.988 23.0814 158.514 22.5827C159.038 22.0874 159.417 21.5044 159.645 20.844C159.881 20.1697 160 19.4356 160 18.6629C160 18.0623 159.916 17.4582 159.744 16.8681Z" fill="white"/>
<path d="M11.1112 6.70996L3.63463 16.3397L0 11.6634L3.84549 6.70996H11.1112Z" fill="#FF0000"/>
<path d="M23.7061 3.74902L8.73214 22.2677L5.1875 17.8808L16.6134 3.74902H23.7061Z" fill="#FF0000"/>
<path d="M36.2933 0.78418L17.3883 23.7473H10.3672L29.2721 0.78418H36.2933Z" fill="#FF0000"/>
</svg>
